<?xml version="1.0" standalone="no"?>
<!DOCTYPE svg PUBLIC "-//W3C//DTD SVG 20010904//EN"
 "http://www.w3.org/TR/2001/REC-SVG-20010904/DTD/svg10.dtd">
<svg version="1.0" xmlns="http://www.w3.org/2000/svg"
 width="500.000000pt" height="500.000000pt" viewBox="0 0 500.000000 500.000000"
 preserveAspectRatio="xMidYMid meet">
<metadata>
Created by potrace 1.11, written by Peter Selinger 2001-2013
</metadata>
<g transform="translate(0.000000,500.000000) scale(0.100000,-0.100000)"
fill="#000000" stroke="none">
<path d="M2155 4984 c-543 -73 -1000 -298 -1388 -682 -358 -354 -590 -760
-702 -1232 -41 -172 -56 -294 -62 -500 -10 -337 38 -630 154 -939 280 -751
960 -1359 1733 -1550 225 -55 289 -63 550 -68 190 -4 273 -1 370 11 545 71
1049 316 1451 704 396 382 629 838 716 1402 22 143 25 566 5 705 -82 579 -313
1049 -706 1440 -403 400 -894 641 -1446 710 -155 19 -533 19 -675 -1z m685
-458 c485 -83 925 -335 1238 -711 505 -605 613 -1495 267 -2210 -92 -191 -193
-333 -354 -498 -335 -344 -749 -556 -1213 -622 -208 -30 -512 -17 -723 31
-776 174 -1413 833 -1565 1620 -127 657 92 1338 590 1834 319 319 725 515
1180 570 112 13 468 5 580 -14z"/>
<path d="M1661 3269 c-292 -57 -503 -269 -566 -569 -19 -90 -20 -295 -1 -392
44 -229 171 -404 359 -497 111 -54 181 -71 322 -77 228 -11 409 55 565 206 71
69 145 170 132 181 -4 3 -73 41 -154 83 l-147 77 -21 -41 c-59 -116 -154 -173
-285 -174 -217 0 -335 156 -335 444 0 163 32 267 106 349 74 82 223 110 331
62 53 -24 133 -99 155 -146 6 -14 15 -25 19 -25 10 0 288 145 312 162 17 13
16 17 -23 76 -127 189 -350 294 -623 291 -56 -1 -122 -5 -146 -10z"/>
<path d="M3085 3264 c-270 -60 -465 -249 -536 -520 -12 -48 -23 -127 -26 -199
-22 -492 270 -815 737 -815 201 0 375 68 518 203 53 50 142 165 142 183 0 5
-69 44 -152 85 l-153 76 -35 -60 c-39 -67 -103 -121 -164 -139 -23 -6 -75 -12
-117 -12 -126 0 -215 56 -273 172 -37 74 -51 148 -51 272 0 131 14 200 58 283
52 98 135 147 257 150 104 3 191 -44 255 -137 21 -31 40 -56 43 -56 14 0 322
166 322 174 0 22 -67 110 -128 168 -77 73 -175 127 -282 158 -102 29 -315 36
-415 14z"/>
</g>
</svg>
